<svg width="138" height="31" viewBox="0 0 138 31" fill="none" xmlns="http://www.w3.org/2000/svg">
<circle cx="9" cy="19.935" r="9" fill="#FFC9C9"/>
<circle cx="9" cy="10.935" r="9" fill="#FF9999"/>
<path d="M128.423 30.87C126.379 30.87 124.629 30.464 123.173 29.652C121.745 28.812 120.653 27.538 119.897 25.83C119.169 24.122 118.805 21.952 118.805 19.32C118.805 16.66 119.169 14.49 119.897 12.81C120.653 11.102 121.759 9.84201 123.215 9.03001C124.699 8.19 126.519 7.77 128.675 7.77C130.719 7.77 132.427 8.176 133.799 8.98801C135.171 9.80001 136.207 10.962 136.907 12.474C137.607 13.986 137.957 15.806 137.957 17.934V19.95H121.367C121.367 22.078 121.647 23.8 122.207 25.116C122.795 26.404 123.621 27.342 124.685 27.93C125.749 28.49 127.023 28.77 128.507 28.77C129.711 28.77 130.733 28.616 131.573 28.308C132.441 27.972 133.141 27.538 133.673 27.006C134.233 26.474 134.653 25.858 134.933 25.158C135.241 24.458 135.409 23.744 135.437 23.016H137.789C137.761 24.024 137.565 25.004 137.201 25.956C136.837 26.88 136.277 27.72 135.521 28.476C134.765 29.204 133.799 29.792 132.623 30.24C131.447 30.66 130.047 30.87 128.423 30.87ZM121.367 17.892H135.437C135.437 16.408 135.255 15.162 134.891 14.154C134.555 13.118 134.079 12.292 133.463 11.676C132.847 11.032 132.119 10.57 131.279 10.29C130.439 10.01 129.515 9.87 128.507 9.87C127.023 9.87 125.763 10.164 124.727 10.752C123.719 11.312 122.921 12.18 122.333 13.356C121.773 14.532 121.451 16.044 121.367 17.892Z" fill="#303238"/>
<path d="M84.0965 30.366V8.274H85.9445L86.2385 11.886H86.5325C87.1765 10.822 87.8765 9.99601 88.6325 9.40801C89.3885 8.79201 90.2005 8.372 91.0685 8.148C91.9645 7.896 92.9165 7.77 93.9245 7.77C95.4365 7.77 96.7385 8.078 97.8305 8.69401C98.9225 9.31001 99.6645 10.374 100.056 11.886H100.35C100.938 10.85 101.61 10.038 102.366 9.45001C103.122 8.83401 103.934 8.4 104.802 8.148C105.698 7.896 106.636 7.77 107.616 7.77C108.96 7.77 110.136 7.994 111.144 8.44201C112.152 8.862 112.936 9.59 113.496 10.626C114.056 11.634 114.336 13.02 114.336 14.784V30.366H111.9V14.91C111.9 13.874 111.774 13.034 111.522 12.39C111.27 11.746 110.906 11.256 110.43 10.92C109.982 10.556 109.464 10.304 108.876 10.164C108.288 10.024 107.644 9.95401 106.944 9.95401C105.824 9.95401 104.76 10.234 103.752 10.794C102.772 11.354 101.974 12.18 101.358 13.272C100.742 14.364 100.434 15.694 100.434 17.262V30.366H97.9985V14.91C97.9985 13.874 97.8725 13.034 97.6205 12.39C97.3685 11.746 97.0185 11.256 96.5705 10.92C96.1505 10.556 95.6465 10.304 95.0585 10.164C94.4705 10.024 93.8545 9.95401 93.2105 9.95401C92.0625 9.95401 90.9705 10.234 89.9345 10.794C88.9265 11.354 88.1005 12.18 87.4565 13.272C86.8405 14.364 86.5325 15.694 86.5325 17.262V30.366H84.0965Z" fill="#303238"/>
<path d="M67.9708 30.87C65.8708 30.87 64.1768 30.352 62.8888 29.316C61.6288 28.28 60.9988 26.46 60.9988 23.856V8.274H63.4348V23.73C63.4348 24.738 63.5608 25.578 63.8128 26.25C64.0928 26.894 64.4708 27.398 64.9468 27.762C65.4228 28.098 65.9688 28.336 66.5848 28.476C67.2288 28.616 67.9288 28.686 68.6848 28.686C69.8328 28.686 70.9388 28.406 72.0028 27.846C73.0668 27.286 73.9348 26.46 74.6068 25.368C75.2788 24.248 75.6148 22.918 75.6148 21.378V8.274H78.0508V30.366H76.2028L75.9508 26.754H75.6568C75.0128 27.818 74.2848 28.658 73.4728 29.274C72.6888 29.862 71.8208 30.268 70.8688 30.492C69.9448 30.744 68.9788 30.87 67.9708 30.87Z" fill="#303238"/>
<path d="M52.7606 30.366V0H55.1966V30.366H52.7606Z" fill="#303238"/>
<path d="M26 30.366V1.554H40.07C41.946 1.554 43.5 1.918 44.732 2.646C45.964 3.374 46.888 4.368 47.504 5.628C48.12 6.888 48.428 8.316 48.428 9.912C48.428 11.592 48.064 13.09 47.336 14.406C46.608 15.722 45.628 16.758 44.396 17.514C43.164 18.27 41.778 18.648 40.238 18.648H28.688V30.366H26ZM28.688 16.254H39.902C41.638 16.254 43.038 15.694 44.102 14.574C45.166 13.454 45.698 11.928 45.698 9.996C45.698 8.736 45.488 7.658 45.068 6.762C44.648 5.838 44.004 5.138 43.136 4.662C42.296 4.186 41.218 3.948 39.902 3.948H28.688V16.254Z" fill="#303238"/>
</svg>
