<svg width="29" height="23" viewBox="0 0 29 23" fill="none" xmlns="http://www.w3.org/2000/svg">
<path d="M28.4138 6.36375L12.3638 22.4138C11.9887 22.7885 11.4802 22.9991 10.95 22.9991C10.4198 22.9991 9.91129 22.7885 9.53625 22.4138L0.583753 13.4138C0.209345 13.0388 -0.000946045 12.5305 -0.000946045 12.0006C-0.000946045 11.4707 0.209345 10.9625 0.583753 10.5875L3.08375 8.0875C3.45858 7.71424 3.96602 7.50468 4.495 7.50468C5.02399 7.50468 5.53142 7.71424 5.90625 8.0875L11 13.0275L23.095 1.08125C23.4699 0.70761 23.9776 0.497803 24.5069 0.497803C25.0362 0.497803 25.5439 0.70761 25.9188 1.08125L28.4125 3.52375C28.6 3.7096 28.7489 3.93073 28.8506 4.17441C28.9522 4.41808 29.0046 4.67947 29.0047 4.94349C29.0048 5.20752 28.9527 5.46895 28.8512 5.71271C28.7498 5.95648 28.6011 6.17775 28.4138 6.36375Z" fill="#FF9999"/>
</svg>
